<svg width="50" height="50" xmlns="http://www.w3.org/2000/svg">

 <g>
  <title>background</title>
  <rect fill="none" id="canvas_background" height="52" width="52" y="-1" x="-1"/>
 </g>
 <g>
  <title>Layer 1</title>
  <rect x="-0.13333" y="0" id="svg_1" width="50" height="28" fill="none"/>
  <g id="svg_2">
   <circle id="svg_3" stroke-width="2" stroke-miterlimit="10" stroke="#000000" r="5" fill="none" cy="21.73334" cx="39.53333"/>
  </g>
  <g id="svg_4">
   <circle id="svg_5" stroke-width="2" stroke-miterlimit="10" stroke="#000000" r="5" fill="none" cy="21.6" cx="11.66667"/>
  </g>
  <path id="svg_6" stroke-width="2" stroke-miterlimit="10" stroke="#000000" fill="none" d="m44.26667,21.86667l3,0c1.059,0 2,-0.941 2,-2l0,-6c0,-1.91 -6,-4 -11,-5c-1.68,-0.336 -6,-6 -6,-6c-1,-1 -2,-2 -4,-2l-13.868,0c-3.212,0 -4.01,8 -8.132,8c-1.11,0 -2,0 -2,0c-1.681,0 -3,0.781 -3,3l0,8.308c0,1.059 0.941,1.692 2,1.692l3,0m10,0l18,0"/>
  <line id="svg_7" y2="8.86667" y1="8.86667" x2="38.4" x1="5.4" stroke-width="2" stroke-miterlimit="10" stroke-linejoin="round" stroke-linecap="round" stroke="#000000" fill="none"/>
  <line id="svg_8" y2="9" y1="1" x2="22" x1="22" stroke-width="2" stroke-miterlimit="10" stroke="#000000" fill="none"/>
 </g>
</svg>