<svg version="1" xmlns="http://www.w3.org/2000/svg" width="682.667" height="682.667" viewBox="0 0 512.000000 512.000000"><path d="M261.4 12.4c-10.4 6-41 23.7-80.4 46.6-23.9 14-48.1 28-53.6 31.2L117.2 96l-.1 164.9-.2 164.8 7 4.2c3.8 2.2 7.2 4.1 7.5 4.1.3 0 2.9 1.5 5.8 3.3 2.9 1.9 7.8 4.7 10.8 6.4 4.5 2.5 11.9 6.8 23 13.3 10.4 6.1 15 8.7 17.5 10.1 1.7.8 8.6 4.8 15.5 8.8 6.9 4 14.3 8.3 16.5 9.6 2.2 1.2 9.1 5.2 15.4 8.9 6.2 3.6 12 6.6 12.8 6.6 1.3 0 30.9-16.9 58.8-33.5 3.9-2.2 7.7-4.4 8.5-4.8.8-.4 2.9-1.6 4.7-2.6 3.4-2.2 32.1-18.9 37.5-21.9 15.9-9.1 35.6-20.8 36.8-21.9 1.3-1.2 1.5-22.1 1.5-165.7V86.3l-8.4-4.9c-4.6-2.7-10-5.9-12-7.1-2-1.3-4.6-2.7-5.8-3.2-1.2-.6-3.9-2.1-6-3.4-3.8-2.4-32.9-19.2-41.3-23.9-2.5-1.4-9.2-5.3-14.8-8.6-5.7-3.4-10.6-6.2-10.8-6.2-.2 0-3.3-1.8-6.9-4-3.6-2.2-6.7-4-7-4-.2 0-4.4-2.4-9.3-5.4l-8.9-5.4-3.9 2.2z"/></svg>